HIERARCHY
ROOT Hips
{
	OFFSET -14.64140 90.27770 -84.91600
	CHANNELS 6 Xposition Yposition Zposition Zrotation Xrotation Yrotation
	JOINT Spine
	{
		OFFSET 0.00000 13.20850 -1.60436
		CHANNELS 3 Zrotation Xrotation Yrotation
		JOINT Spine1
		{
			OFFSET 0.00000 8.61716 0.00000
			CHANNELS 3 Zrotation Xrotation Yrotation
			JOINT Spine2
			{
				OFFSET 0.00000 8.61717 0.00000
				CHANNELS 3 Zrotation Xrotation Yrotation
				JOINT Spine3
				{
					OFFSET 0.00000 8.61717 0.00000
					CHANNELS 3 Zrotation Xrotation Yrotation
					JOINT Neck
					{
						OFFSET 0.00000 11.07920 1.10792
						CHANNELS 3 Zrotation Xrotation Yrotation
						JOINT Neck1
						{
							OFFSET 0.00000 7.08032 0.00000
							CHANNELS 3 Zrotation Xrotation Yrotation
							JOINT Head
							{
								OFFSET 0.00000 7.08031 0.00000
								CHANNELS 3 Zrotation Xrotation Yrotation
								End site
								{
									OFFSET 0.00000 0.00000 0.00000
								}
							}
						}
					}
					JOINT RightShoulder
					{
						OFFSET -0.01000 7.91373 5.19711
						CHANNELS 3 Zrotation Xrotation Yrotation
						JOINT RightArm
						{
							OFFSET -18.41580 0.00000 0.00000
							CHANNELS 3 Zrotation Xrotation Yrotation
							JOINT RightForeArm
							{
								OFFSET -29.11090 0.00000 0.00000
								CHANNELS 3 Zrotation Xrotation Yrotation
								JOINT RightHand
								{
									OFFSET -24.65040 0.00000 0.00000
									CHANNELS 3 Zrotation Xrotation Yrotation
									JOINT RightHandThumb1
									{
										OFFSET -5.35114 -0.85590 3.97906
										CHANNELS 3 Zrotation Xrotation Yrotation
										JOINT RightHandThumb2
										{
											OFFSET -4.52789 0.00000 0.00000
											CHANNELS 3 Zrotation Xrotation Yrotation
											JOINT RightHandThumb3
											{
												OFFSET -2.46976 0.00000 0.00000
												CHANNELS 3 Zrotation Xrotation Yrotation
												End site
												{
													OFFSET 0.00000 0.00000 0.00000
												}
											}
										}
									}
									JOINT RightHandIndex1
									{
										OFFSET -14.26970 0.00000 2.88139
										CHANNELS 3 Zrotation Xrotation Yrotation
										JOINT RightHandIndex2
										{
											OFFSET -5.48836 0.00000 0.00000
											CHANNELS 3 Zrotation Xrotation Yrotation
											JOINT RightHandIndex3
											{
												OFFSET -3.01859 0.00000 0.00000
												CHANNELS 3 Zrotation Xrotation Yrotation
												End site
												{
													OFFSET 0.00000 0.00000 0.00000
												}
											}
										}
									}
									JOINT RightHandMiddle1
									{
										OFFSET -14.26970 0.00000 -0.09147
										CHANNELS 3 Zrotation Xrotation Yrotation
										JOINT RightHandMiddle2
										{
											OFFSET -6.17441 0.00000 0.00000
											CHANNELS 3 Zrotation Xrotation Yrotation
											JOINT RightHandMiddle3
											{
												OFFSET -3.56743 0.00000 0.00000
												CHANNELS 3 Zrotation Xrotation Yrotation
												End site
												{
													OFFSET 0.00000 0.00000 0.00000
												}
											}
										}
									}
									JOINT RightHandRing1
									{
										OFFSET -12.69180 0.00000 -3.06433
										CHANNELS 3 Zrotation Xrotation Yrotation
										JOINT RightHandRing2
										{
											OFFSET -5.62556 0.00000 0.00000
											CHANNELS 3 Zrotation Xrotation Yrotation
											JOINT RightHandRing3
											{
												OFFSET -3.56744 0.00000 0.00000
												CHANNELS 3 Zrotation Xrotation Yrotation
												End site
												{
													OFFSET 0.00000 0.00000 0.00000
												}
											}
										}
									}
									JOINT RightHandPinky1
									{
										OFFSET -11.11390 0.00000 -6.03719
										CHANNELS 3 Zrotation Xrotation Yrotation
										JOINT RightHandPinky2
										{
											OFFSET -4.52789 0.00000 0.00000
											CHANNELS 3 Zrotation Xrotation Yrotation
											JOINT RightHandPinky3
											{
												OFFSET -2.46976 0.00000 0.00000
												CHANNELS 3 Zrotation Xrotation Yrotation
												End site
												{
													OFFSET 0.00000 0.00000 0.00000
												}
											}
										}
									}
								}
							}
						}
					}
					JOINT LeftShoulder
					{
						OFFSET 0.01000 7.91373 5.19711
						CHANNELS 3 Zrotation Xrotation Yrotation
						JOINT LeftArm
						{
							OFFSET 18.41580 0.00000 0.00000
							CHANNELS 3 Zrotation Xrotation Yrotation
							JOINT LeftForeArm
							{
								OFFSET 29.11090 0.00000 0.00000
								CHANNELS 3 Zrotation Xrotation Yrotation
								JOINT LeftHand
								{
									OFFSET 24.65040 0.00000 0.00000
									CHANNELS 3 Zrotation Xrotation Yrotation
									JOINT LeftHandThumb1
									{
										OFFSET 5.35114 -0.85590 3.97906
										CHANNELS 3 Zrotation Xrotation Yrotation
										JOINT LeftHandThumb2
										{
											OFFSET 4.52789 0.00000 0.00000
											CHANNELS 3 Zrotation Xrotation Yrotation
											JOINT LeftHandThumb3
											{
												OFFSET 2.46977 0.00000 0.00000
												CHANNELS 3 Zrotation Xrotation Yrotation
												End site
												{
													OFFSET 0.00000 0.00000 0.00000
												}
											}
										}
									}
									JOINT LeftHandIndex1
									{
										OFFSET 14.26970 0.00000 2.88139
										CHANNELS 3 Zrotation Xrotation Yrotation
										JOINT LeftHandIndex2
										{
											OFFSET 5.48836 0.00000 0.00000
											CHANNELS 3 Zrotation Xrotation Yrotation
											JOINT LeftHandIndex3
											{
												OFFSET 3.01859 0.00000 0.00000
												CHANNELS 3 Zrotation Xrotation Yrotation
												End site
												{
													OFFSET 0.00000 0.00000 0.00000
												}
											}
										}
									}
									JOINT LeftHandMiddle1
									{
										OFFSET 14.26970 0.00000 -0.09147
										CHANNELS 3 Zrotation Xrotation Yrotation
										JOINT LeftHandMiddle2
										{
											OFFSET 6.17440 0.00000 0.00000
											CHANNELS 3 Zrotation Xrotation Yrotation
											JOINT LeftHandMiddle3
											{
												OFFSET 3.56744 0.00000 0.00000
												CHANNELS 3 Zrotation Xrotation Yrotation
												End site
												{
													OFFSET 0.00000 0.00000 0.00000
												}
											}
										}
									}
									JOINT LeftHandRing1
									{
										OFFSET 12.69180 0.00000 -3.06433
										CHANNELS 3 Zrotation Xrotation Yrotation
										JOINT LeftHandRing2
										{
											OFFSET 5.62556 0.00000 0.00000
											CHANNELS 3 Zrotation Xrotation Yrotation
											JOINT LeftHandRing3
											{
												OFFSET 3.56744 0.00000 0.00000
												CHANNELS 3 Zrotation Xrotation Yrotation
												End site
												{
													OFFSET 0.00000 0.00000 0.00000
												}
											}
										}
									}
									JOINT LeftHandPinky1
									{
										OFFSET 11.11390 0.00000 -6.03719
										CHANNELS 3 Zrotation Xrotation Yrotation
										JOINT LeftHandPinky2
										{
											OFFSET 4.52789 0.00000 0.00000
											CHANNELS 3 Zrotation Xrotation Yrotation
											JOINT LeftHandPinky3
											{
												OFFSET 2.46976 0.00000 0.00000
												CHANNELS 3 Zrotation Xrotation Yrotation
												End site
												{
													OFFSET 0.00000 0.00000 0.00000
												}
											}
										}
									}
								}
							}
						}
					}
					JOINT pCube4
					{
						OFFSET 0.00000 10.91090 1.10792
						CHANNELS 3 Zrotation Xrotation Yrotation
						End site
						{
							OFFSET 0.00000 0.00000 0.00000
						}
					}
				}
			}
		}
	}
	JOINT RightUpLeg
	{
		OFFSET -9.98441 0.00000 0.00000
		CHANNELS 3 Zrotation Xrotation Yrotation
		JOINT RightLeg
		{
			OFFSET 0.00000 -42.11790 0.00000
			CHANNELS 3 Zrotation Xrotation Yrotation
			JOINT RightFoot
			{
				OFFSET 0.00000 -45.00020 -0.00001
				CHANNELS 3 Zrotation Xrotation Yrotation
				JOINT RightForeFoot
				{
					OFFSET 0.00000 -3.74820 0.00000
					CHANNELS 3 Zrotation Xrotation Yrotation
					JOINT RightToeBase
					{
						OFFSET 0.00000 0.06325 14.43120
						CHANNELS 3 Zrotation Xrotation Yrotation
						End site
						{
							OFFSET 0.00000 0.00000 0.00000
						}
					}
				}
			}
		}
	}
	JOINT LeftUpLeg
	{
		OFFSET 9.98441 0.00000 0.00000
		CHANNELS 3 Zrotation Xrotation Yrotation
		JOINT LeftLeg
		{
			OFFSET 0.00000 -42.11800 0.00000
			CHANNELS 3 Zrotation Xrotation Yrotation
			JOINT LeftFoot
			{
				OFFSET 0.00000 -45.00070 0.00000
				CHANNELS 3 Zrotation Xrotation Yrotation
				JOINT LeftForeFoot
				{
					OFFSET 0.00000 -3.74824 0.00000
					CHANNELS 3 Zrotation Xrotation Yrotation
					JOINT LeftToeBase
					{
						OFFSET 0.00000 0.06325 14.43110
						CHANNELS 3 Zrotation Xrotation Yrotation
						End site
						{
							OFFSET 0.00000 0.00000 0.00000
						}
					}
				}
			}
		}
	}
}
MOTION
Frames: 4
Frame Time: 0.050000
0.01850126614569945 0.04335160836261499 0.04044120686913494 0.0031857550963837727 -0.017755864241518062 0.029157291296529598 -3.422890725530209 -0.671951857474062 -0.6282633834678224 -1.134029217754993 3.794396441364049 0.44138334750156816 -1.365651176106017 -1.9364655979873235 -0.9921368595666188 0.1359287825199287 0.5264648698630022 -0.820588167738272 0.08913357243850162 12.476158476326441 0.3905331483922423 0.21198763641535848 -0.1480270631454557 -0.9182850007184626 0.24889846561460172 -14.964336156043478 -0.08752179672375549 -4.895144968304319 1.6201205086162593 -13.979230186901352 64.50298461065664 21.25896889743167 12.818884618762297 5.815615006128688 2.2027003012901396 62.451076570462014 15.47630566207747 -0.20733216115349898 -2.580042121242464 4.546918948506405 -0.13690872281651778 -1.5794832064910922 0.021268692971968886 -0.04045550197323315 -56.20766337975104 -0.009181068901680854 -0.039788157844087436 -56.2106749761808 -38.78742371526884 -0.005256995493019115 0.01106122878979884 0.04794121770682401 -0.01855733513972202 0.004267489664227989 -0.0021873485006870335 -0.01728915943219622 -0.003990480174805315 -36.70193573253893 0.04612288379874316 0.0019113139484050125 0.027209933014877473 -0.021185841688188847 0.029020371118447106 0.016959896617178886 -0.03614474403841608 -0.04224316420761097 -19.79411786037692 -0.034561253461147294 0.0402997613921406 0.023920167683075973 0.04199444097415576 -0.010132983464218025 -0.01576201449252098 0.048795462553141176 0.01317854062274385 24.01935089934893 0.04971527697905216 -0.04395307590780477 28.860958849670993 0.002521451686229589 -0.0033107495912885828 28.859430036783692 -0.041367764736634 0.04906855987009176 5.411722030808518 1.1973936474262978 12.586272538407103 -70.11583315255794 28.014585208839556 -10.970727547866648 -44.787456978576245 2.9754768734075787 -80.29743419754047 -5.615299060076978 0.6077502197136645 -0.6477327465287542 -0.47767979170076313 0.08072483023052276 -8.161676632616011 -0.045305238273588316 0.046462620676074234 44.60354957851587 -0.04447552872194098 0.020746046792513052 44.57571299743024 12.411274240945415 -0.04978183282549948 -0.016108539177752557 -0.024687020951937793 -0.008331304152781955 -0.012640278530749442 0.04285804283082597 0.04443720227256044 0.009758321118322545 11.075366756763403 -0.04674014273577422 0.025359324879950844 0.04200534078592736 -0.008591330736747105 -0.022242147996844524 -0.048027922937136536 -0.027654950173089263 0.020133029861464168 4.7748310924211275 -0.02684933607512354 -0.0020850519115019513 0.034704083438005406 0.038595851584291345 0.016331900773589172 0.03640764721015083 -0.03163948986570799 0.0091719388012589 -5.614363962465625 0.030777910301419437 -0.0028001692467443827 -6.717350024913762 -0.016049614889613394 0.013751394342590754 -6.684278817197463 -0.01679725875673318 0.006164002134660915 -0.00046253542589491724 -0.003927913120497457 0.0014310741178860556 8.00758881303207 3.4636096970665355 -19.185670950238404 -0.031389097873321836 10.400135934591221 0.04341533002818572 -5.586224306129388 -15.642514249061179 3.197054245469164 0.0179198222951567 -0.002806320697615574 0.004257407639590133 -0.0048023837049265454 4.687819521569357 0.0027066757361804074 12.502087273616363 -8.269246673883144 6.871932937726357 -0.0385366848273891 46.350488940608486 -0.010967268149691746 -4.319230611657723 -14.732472501641206 -3.8098684512793923 0.005678780000953932 0.016260556261923704 0.004773466716316112 -0.016479251731085467 -10.79269732943568 -0.022862982301732608 
0.03668900063644694 0.020780552093524862 -0.04149965532366908 -0.03794534266810465 0.007760402112674893 -0.012144698259463294 -3.39866495812343 -0.6550637272767342 -0.6444929917471856 -1.1263439129085597 3.7666167434466558 0.4153848323425255 -1.3905182888818408 -1.9047670692212415 -0.9591565685388306 0.00030912036115607333 0.5261054805762245 -0.835473605505219 -0.0012093937933791987 12.56366960291007 0.7371374093676175 0.23794644984952829 -0.0752843991376361 -0.17205047219832817 0.19081670148689178 -14.997592286820675 -0.0532279500111121 -4.900433640293755 1.5663271844987932 -13.896621796697588 65.07990260788449 22.059760175444403 11.955096163434009 5.938663528237241 2.5012962199775806 62.70851795276221 15.59721170517199 -0.2777088846701456 -2.4676326851895998 4.507810805605634 -0.09491016131118615 -1.5700434360331594 0.012606542948137999 0.02169130944806119 -56.20836978605771 0.008109935079625796 -0.03638313074355918 -56.268503626100895 -38.73825060494854 0.016745358160161553 -0.03293598246663387 -0.03859826699222828 -0.014650208922612071 0.021475539377234534 -0.020033915302456254 0.03224679127121566 -0.00795150377621062 -36.711549367292804 -0.026914995199018674 0.004827376996131199 -0.009597065698063218 -0.00446618141841918 -0.006670366271214787 0.03050742473626695 0.023128953218386056 0.02857106949433795 -19.725879941152538 -0.04705094569062074 -0.029060253147200652 0.031485316131842855 -0.030884288582282447 0.01353794302785845 -0.00502979153541618 0.007907540754129486 0.04495817266704345 24.07400747877259 0.023397920897760154 0.041059665959645525 28.843805599711672 0.013061205538296662 0.010077474706656878 28.911009569452382 -0.00020924601544974937 0.02283399197152792 5.591515436877362 1.2137926708869784 12.540939583611799 -70.48942895116787 28.127027945955238 -10.99276292012717 -44.349615621359945 3.1407767211868385 -80.17686429101097 -6.220491628205739 0.54243004440183 -0.675501622775732 -0.4370861140485288 0.08954729263055462 -8.119851598272176 -0.01124886588105489 -0.025603975610407007 44.54650603816351 -0.017921846340099367 -0.01636114991953307 44.51971338217856 12.414224362611321 -0.004525774155747647 0.037878921063584425 -0.008398386598327156 -0.03812587930597295 -0.002125485695820873 0.03904795965531444 0.005110507856722389 0.01991956690297135 11.14628860358362 -0.03222528533252154 -0.0015462239925286972 -0.016022940233069723 0.011628644922935175 0.030776079997580322 0.040946054847605856 -0.0014444333659411077 -0.010661281381831625 4.776294325829262 -0.04544578444873376 -0.03254346060749273 0.007151461689543236 -0.0028066163096153954 -0.005603703236522638 -0.00522582475474143 -0.04636390163346554 0.0046087909258901725 -5.624731784066118 -0.01068104973166782 0.020901133039682628 -6.769927912795043 0.024425034679218697 -0.040785540052450636 -6.76648573820149 -0.01764765235978582 0.04066550692384516 0.031708790797166375 0.004801948029344599 -0.041283042874473784 8.08750983644347 3.4578977471612053 -19.24007750987257 0.02815375553334754 10.426713997412657 -0.019467016740656668 -5.650214912328381 -15.684555254008608 3.2281529840997676 -0.03306398452448023 -0.02423193737839774 -0.016615949935403506 -0.026529043372157453 4.687187789518826 -0.01322063540993798 12.425572029288642 -8.21731707005438 6.852943662169125 0.027881881159582088 46.36192877559469 -0.04100513226083973 -4.360430150960222 -14.75736898699474 -3.838517073499594 0.027392159050391916 0.008995314510609424 -0.009363936899475622 -0.01400916475621462 -10.757932243667709 0.0007113126209850707 
0.038082005849644114 0.028892027794053827 -0.04403592974878756 0.03442610206977222 -0.012201606619140222 0.009842965760257517 -3.2633754633546284 -0.4556244889322497 -0.6475460306588102 -1.093927743022357 3.793476214183069 0.4108764412559045 -1.3289148819157364 -1.956428854696638 -1.0294440954654505 -0.03323210574046376 0.49664831927221736 -0.838196320631917 -0.21678357824532377 12.461295687148242 1.0296905365772018 0.2384174039753254 -0.13626262417643106 0.9557306107556809 0.04562342144634607 -15.049160611358477 0.08813904207778933 -4.540363980798533 1.5443808434520414 -14.070000369432552 67.3416472359302 23.362231142777482 9.14093692118677 5.496257489293116 3.091783088785565 60.12522260172495 16.432201659729603 -0.18815531088565207 -2.708004079219031 4.5380457320854495 -0.10766363399844717 -1.6062828074606534 0.024481611257533866 0.028835722100417488 -56.26166198672695 0.023555315538558504 0.04202513788957486 -56.22618954491728 -38.72028896529647 -0.0410839030936339 -0.0034183847293131307 -0.034656025496691396 0.00891314196496805 0.00897217010125208 -0.03754259216364267 -0.036899927099139994 -0.01671043970773209 -36.733496687599065 -0.03940409966720019 -0.007740707518585995 -0.022948886528399288 0.030979804600824206 0.002598944450791835 -0.04765789358353912 0.005851941280568324 -0.036533237002385296 -19.728486475049312 0.020741419972530026 0.011101938678337317 0.001869741520281149 -0.01225221317703875 -0.009156478883985306 -0.039517573831353445 -0.036133228986636755 -0.045874619958456916 24.01524426002735 0.022731743756803393 0.02731697486488084 28.909948142839944 -0.025230273460429855 0.0039589755054249675 28.834350794831323 0.0032246327071515555 -0.040710537094229754 5.923787407841716 1.3086741435033875 12.751391353794675 -71.10209596060595 28.21547126344617 -10.87794276978628 -43.56464510739763 3.786019559692006 -80.0014824151106 -7.555934219520576 -0.2580273884801693 -0.19182612754186593 -0.4379514702978154 0.05979774716388717 -8.140095044385449 -0.042937208389782835 -0.03217123831078156 44.583941880902195 -0.034655867942932475 -0.001694469287373812 44.54267850276229 12.419067432228221 -0.028506760459348857 -0.015017986931783654 -0.03693636176913874 0.04997519974492572 0.03330216294294861 -0.013672671697053941 0.0037946043389201893 -0.012060463028948792 11.0720203369467 0.021721310762297264 0.032879132170328715 -0.030567377195616533 -0.013304075669625569 0.029160055092125922 0.035589047851753285 0.005283242610952803 -0.03773475269653115 4.766812889072694 -0.03621993075129119 0.011903135216263964 -0.0408695703499132 -0.04913524180508639 -0.035274515828986455 0.01604962225615417 0.03219770306673108 0.00027672532423162556 -5.605733856845495 0.02136442872213873 0.036169902401911036 -6.710325547376419 -0.0003189608603588102 0.006610966057477219 -6.738439724815476 0.049749485761701615 -0.01626397325663912 0.02928396095177367 0.03230380532643868 0.040658840724564105 8.008427557014127 3.5209351239585898 -19.264432248848827 0.009024456326404284 10.424417891897528 0.04796581397619054 -5.669370952372292 -15.629276375096525 3.234724957228069 -0.04192395878224327 -0.013958826251690143 0.01724015650803753 -0.014814260394889228 4.6542217346711885 0.030371481949122488 12.445850614727666 -8.204828895139263 6.860253857771382 -0.030177334901316834 46.358292548378266 -0.04187594492685567 -4.361063553677842 -14.723702226385617 -3.850311042794474 -0.03202422408897417 -0.026372829675721417 -0.03969219432052792 0.037230339127645604 -10.735000264343979 -0.04379336919407258 
0.040386300283488316 -0.014365269096934695 0.03233651493076434 0.013270009094992739 0.03829912331241597 0.04347674648227343 -3.1296881864721784 -0.30012108383505 -0.74550169908203 -1.0892507119277883 3.7356571094592015 0.3830677162584824 -1.2320110591991826 -1.8905610656075724 -1.235412569124883 -0.143444970697084 0.5063262204278279 -0.8492293620506486 -0.41695983197355424 12.409494735468748 1.4599546614628445 0.16128536034582266 -0.23012067926636187 2.013309960890827 -0.11518316216245962 -15.214107848021886 0.1767611650125576 -4.094254734195788 1.4535232197519712 -14.33183792399655 70.18135106499304 25.083412330009146 5.956982896640056 4.798741322416293 3.6618587664597664 56.23684339805238 18.08584647138456 -0.21653210014614646 -3.156885406077561 4.537871731648761 -0.09387776149911078 -1.6239380816955624 0.046120844720216096 -0.028517446906414164 -56.241181067163865 0.0020809901768877813 -0.03237501205540139 -56.23862040459773 -38.74786369666655 0.01440765029110176 -0.0003807519585505427 0.034027867943795795 0.00016453918904025443 -0.04449472560854966 -0.01723763211399319 -0.004572519048492863 0.029395331536280867 -36.65423283375619 -0.006781628865195933 -0.022752917615349408 -0.01782072281431723 -0.019888643217044085 -0.007941703645825077 0.008538209117143486 0.018689747488485498 -0.04368761144532968 -19.765986923302183 -0.0066239048271539164 -0.02091442970055611 0.01545060601951808 0.036082508809780534 -0.014130634308704228 0.01431271037528723 -0.03495886525627345 0.017527328687143004 24.046538220208074 0.029668311722093343 0.018936849987740707 28.88546037151879 -0.04985243308094502 0.00019643628246567116 28.90193158055195 0.046359028448983854 0.027853661365480335 6.073048940841532 1.3379844347829672 12.919385375450906 -71.64033183575492 28.093320910468066 -10.581418835856883 -42.63568844960013 4.671230727507215 -79.2078814080159 -9.506800095436352 -1.4915570803631821 0.5657689780255257 -0.49565643641038215 0.07283519162838657 -8.151137299697291 0.018193173971417998 0.03757373561525713 44.615859854332314 0.009862619626306354 -0.0011204825846620789 44.57961650875081 12.50744111321947 -0.01038414894583962 0.04454775894174724 0.031102439605528477 -0.023372965530462825 -0.018842236558727122 -0.015808205688277094 -0.00854735447166362 0.010993249551777426 11.08910011012663 -0.019265059644594542 -0.0038573152511470325 -0.02801080983858834 0.01404794059809306 0.005724253489050191 -0.0034279498400713627 0.04456179991307577 0.0056415555625812085 4.804616569575033 -0.014213982296396012 0.008136361438462797 -0.012812551220623436 0.0224580425348193 -0.017854749804161695 0.04505654835061031 -0.045344625795154636 0.010833258263098106 -5.601489302831406 -0.00897836318231028 -0.010368026264859503 -6.732328903991196 0.016435831348618674 0.04835009437650233 -6.740757146696431 -0.013366064311645493 0.039457136195346805 -0.030303978679730004 -0.003270253774953564 0.010135286525972722 8.037824567540056 3.496837995659979 -19.242766734961858 -0.030255867011453896 10.378454569754291 0.0008392126755877253 -5.63642769579073 -15.664399074612762 3.165007445480898 0.047649195458252004 0.027972302504500342 0.009467292011641315 -0.006872002358582187 4.732304155848831 0.03630769179739668 12.450446333833575 -8.254389727788958 6.913778120481354 -0.03429067017786005 46.372093624321074 0.029534996565667868 -4.2915571344144094 -14.701950084860556 -3.8209247867218314 -0.002556695717440302 0.022549230308739218 -0.03742430139329466 0.03788951207672821 -10.770317132187635 -0.017971228364575084 
